<svg width="21" height="22" viewBox="0 0 21 22" fill="none" xmlns="http://www.w3.org/2000/svg">
<g id="icon_connected">
<path id="Rectangle 2185" opacity="0.15" d="M0 11C0 16.799 4.70101 21.5 10.5 21.5C16.299 21.5 21 16.799 21 11C21 5.20101 16.299 0.5 10.5 0.5C4.70101 0.5 0 5.20101 0 11Z" fill="#25D695"/>
<path id="Vector" d="M6.52525 5.425C6.19418 5.425 5.925 5.6943 5.925 6.02513C5.925 6.35633 6.19419 6.62538 6.52525 6.62538C11.1291 6.62538 14.8745 10.371 14.8745 14.9749C14.8745 15.306 15.1437 15.575 15.4749 15.575C15.8059 15.575 16.0751 15.306 16.0751 14.9749C16.075 9.70902 11.7911 5.425 6.52525 5.425Z" fill="#25D695" stroke="#25D695" stroke-width="0.15"/>
<path id="Vector_2" d="M7.14818 9.27774C6.75049 9.27774 6.42714 9.60109 6.42714 9.99878C6.42714 10.3963 6.75048 10.7198 7.14818 10.7198C9.37454 10.7198 11.1856 12.531 11.1856 14.757C11.1856 15.1547 11.5088 15.4781 11.9067 15.4781C12.3044 15.4781 12.6276 15.1547 12.6276 14.757C12.6275 11.7358 10.1696 9.27774 7.14818 9.27774Z" fill="#25D695" stroke="#25D695" stroke-width="0.15"/>
<path id="Vector_3" d="M9.00223 15.1729C9.00223 13.7922 7.88267 12.6729 6.50214 12.6729V15.1729H9.00223Z" fill="#25D695"/>
</g>
</svg>
