<svg width="100" height="20" viewBox="0 0 100 20" fill="none" xmlns="http://www.w3.org/2000/svg">
<g id="Logo">
<g id="Coreum">
<path d="M28.6889 5.24469C27.5047 5.24469 26.5995 5.68677 25.9734 6.57092C25.3472 7.45507 25.0342 8.66568 25.0342 10.2027C25.0342 11.7534 25.32 12.9572 25.8917 13.8142C26.477 14.6575 27.4094 15.0792 28.6889 15.0792C29.2742 15.0792 29.8663 15.0112 30.4653 14.8751C31.0642 14.7391 31.7107 14.5487 32.4049 14.3039V16.8951C31.7652 17.1535 31.1322 17.344 30.5061 17.4664C29.88 17.5888 29.179 17.65 28.4031 17.65C26.8922 17.65 25.6535 17.344 24.6871 16.7319C23.7206 16.1062 23.006 15.2356 22.5432 14.1202C22.0804 12.9912 21.849 11.6786 21.849 10.1823C21.849 8.71329 22.1144 7.41427 22.6453 6.28527C23.1761 5.15628 23.9452 4.27213 24.9525 3.63282C25.9734 2.99351 27.2189 2.67385 28.6889 2.67385C29.4104 2.67385 30.1318 2.76907 30.8532 2.9595C31.5882 3.13633 32.2892 3.38117 32.9562 3.69403L31.9558 6.20366C31.4113 5.94521 30.86 5.72077 30.3019 5.53034C29.7575 5.33991 29.2198 5.24469 28.6889 5.24469Z" fill="white"/>
<path d="M45.3849 11.8554C45.3849 13.7053 44.8948 15.1336 43.9148 16.1402C42.9483 17.1467 41.628 17.65 39.9537 17.65C38.9193 17.65 37.9936 17.4256 37.1769 16.9767C36.3738 16.5278 35.7409 15.8749 35.2781 15.018C34.8153 14.1474 34.5839 13.0932 34.5839 11.8554C34.5839 10.0055 35.0671 8.58407 36.0336 7.5911C37 6.59812 38.3271 6.10164 40.015 6.10164C41.0631 6.10164 41.9887 6.32608 42.7918 6.77496C43.5949 7.22383 44.2279 7.87675 44.6907 8.73369C45.1535 9.59064 45.3849 10.6312 45.3849 11.8554ZM37.6874 11.8554C37.6874 12.9572 37.8643 13.7938 38.2182 14.3651C38.5858 14.9228 39.1779 15.2016 39.9946 15.2016C40.7977 15.2016 41.3762 14.9228 41.7301 14.3651C42.0976 13.7938 42.2814 12.9572 42.2814 11.8554C42.2814 10.7536 42.0976 9.9307 41.7301 9.38661C41.3762 8.82891 40.7909 8.55006 39.9742 8.55006C39.1711 8.55006 38.5858 8.82891 38.2182 9.38661C37.8643 9.9307 37.6874 10.7536 37.6874 11.8554Z" fill="white"/>
<path d="M54.1265 6.10164C54.2762 6.10164 54.4532 6.10844 54.6574 6.12204C54.8615 6.13565 55.0249 6.15605 55.1474 6.18325L54.9228 9.03974C54.8139 9.01254 54.671 8.99214 54.494 8.97854C54.3171 8.95133 54.1605 8.93773 54.0244 8.93773C53.5072 8.93773 53.0103 9.03295 52.5339 9.22338C52.0575 9.40021 51.6696 9.69266 51.3701 10.1007C51.0843 10.5088 50.9413 11.0665 50.9413 11.7738V17.446H47.8991V6.30568H50.2063L50.6555 8.1828H50.7984C51.1251 7.6115 51.5743 7.12182 52.146 6.71375C52.7177 6.30568 53.3778 6.10164 54.1265 6.10164Z" fill="white"/>
<path d="M61.366 6.10164C62.9041 6.10164 64.1224 6.54372 65.0208 7.42787C65.9191 8.29842 66.3683 9.54303 66.3683 11.1617V12.6308H59.1813C59.2085 13.4877 59.4604 14.161 59.9368 14.6507C60.4268 15.1404 61.1006 15.3852 61.9581 15.3852C62.6659 15.3852 63.3125 15.3172 63.8978 15.1812C64.4967 15.0316 65.1092 14.8071 65.7354 14.5079V16.8543C65.1773 17.1263 64.5988 17.3236 63.9999 17.446C63.401 17.582 62.6727 17.65 61.8152 17.65C60.699 17.65 59.7122 17.446 58.8546 17.0379C57.9971 16.6162 57.3233 15.9905 56.8333 15.1608C56.3433 14.3175 56.0982 13.2497 56.0982 11.9574C56.0982 10.6652 56.316 9.58384 56.7516 8.71329C57.2008 7.84274 57.8201 7.18983 58.6096 6.75455C59.3991 6.31928 60.3179 6.10164 61.366 6.10164ZM61.3864 8.26441C60.7875 8.26441 60.2975 8.45484 59.9163 8.83571C59.5352 9.21658 59.3106 9.80828 59.2426 10.6108H63.5099C63.4962 9.9443 63.3125 9.3866 62.9586 8.93773C62.6183 8.48885 62.0942 8.26441 61.3864 8.26441Z" fill="white"/>
<path d="M79.0645 6.30568V17.446H76.7369L76.3285 16.0177H76.1652C75.8113 16.589 75.3212 17.0039 74.6951 17.2624C74.0826 17.5208 73.4292 17.65 72.735 17.65C71.5371 17.65 70.5775 17.3304 69.8561 16.6911C69.1347 16.0381 68.774 14.9976 68.774 13.5693V6.30568H71.8162V12.8144C71.8162 13.6169 71.9591 14.2222 72.245 14.6303C72.5308 15.0248 72.9868 15.222 73.6129 15.222C74.5386 15.222 75.1715 14.9092 75.5118 14.2834C75.8521 13.6441 76.0222 12.7328 76.0222 11.5494V6.30568H79.0645Z" fill="white"/>
<path d="M95.342 6.10164C96.6079 6.10164 97.5607 6.4281 98.2005 7.08101C98.8538 7.72032 99.1805 8.7541 99.1805 10.1823V17.446H96.1383V10.9373C96.1383 9.3322 95.5802 8.52966 94.464 8.52966C93.6609 8.52966 93.0892 8.81531 92.7489 9.38661C92.4087 9.9579 92.2385 10.7808 92.2385 11.8554V17.446H89.1963V10.9373C89.1963 9.3322 88.6382 8.52966 87.522 8.52966C86.6781 8.52966 86.0928 8.84931 85.7661 9.48862C85.453 10.1143 85.2965 11.0189 85.2965 12.2023V17.446H82.2543V6.30568H84.5819L84.9902 7.73392H85.1536C85.4939 7.16262 85.9567 6.74775 86.542 6.48931C87.1409 6.23086 87.7602 6.10164 88.4 6.10164C89.2167 6.10164 89.9041 6.23766 90.4622 6.50971C91.0339 6.76816 91.4762 7.17623 91.7893 7.73392H92.0547C92.395 7.16262 92.8646 6.74775 93.4636 6.48931C94.0761 6.23086 94.7022 6.10164 95.342 6.10164Z" fill="white"/>
</g>
<g id="Group 6494">
<g id="Group 6632">
<g id="Group 6734">
<path id="Vector" d="M7.0719 7.5C6.57745 7.5 6.0941 7.64662 5.68297 7.92133C5.27185 8.19603 4.95142 8.58648 4.7622 9.04329C4.57298 9.50011 4.52347 10.0028 4.61994 10.4877C4.7164 10.9727 4.9545 11.4181 5.30413 11.7678C5.65376 12.1174 6.09922 12.3555 6.58417 12.452C7.06913 12.5484 7.57179 12.4989 8.02861 12.3097C8.48542 12.1205 8.87587 11.8 9.15057 11.3889C9.42528 10.9778 9.5719 10.4945 9.5719 10C9.5719 9.33696 9.30851 8.70107 8.83967 8.23223C8.37083 7.76339 7.73494 7.5 7.0719 7.5Z" fill="#25D695"/>
<path id="Vector_2" d="M7.07125 7.55631e-06C5.75778 -0.00160939 4.45693 0.256292 3.24343 0.758897C2.02992 1.2615 0.927677 1.99891 0 2.92876L3.5375 6.46626C4.23656 5.76649 5.12747 5.28978 6.09751 5.09645C7.06755 4.90311 8.07314 5.00184 8.98707 5.38013C9.90099 5.75842 10.6822 6.39927 11.2318 7.22163C11.7814 8.04398 12.0748 9.01088 12.0748 10C12.0748 10.9891 11.7814 11.956 11.2318 12.7784C10.6822 13.6007 9.90099 14.2416 8.98707 14.6199C8.07314 14.9982 7.06755 15.0969 6.09751 14.9036C5.12747 14.7102 4.23656 14.2335 3.5375 13.5338L0 17.0713C1.16286 18.234 2.59453 19.0921 4.16821 19.5695C5.74189 20.0468 7.40901 20.1287 9.02189 19.8078C10.6348 19.487 12.1436 18.7733 13.4148 17.7301C14.686 16.6868 15.6803 15.3462 16.3097 13.8269C16.939 12.3076 17.1839 10.6565 17.0227 9.01996C16.8616 7.3834 16.2993 5.81183 15.3857 4.44448C14.4721 3.07712 13.2354 1.95618 11.7851 1.18093C10.3348 0.405684 8.71573 6.74792e-05 7.07125 7.55631e-06Z" fill="#25D695"/>
</g>
</g>
</g>
</g>
</svg>
