<svg width="32" height="32" viewBox="0 0 32 32" fill="none" xmlns="http://www.w3.org/2000/svg">
<g id="cosmostation_logo 1">
<rect width="32" height="32" rx="8" fill="white"/>
<g id="&#234;&#183;&#184;&#235;&#163;&#185; 3786">
<path id="&#236;&#130;&#172;&#234;&#176;&#129;&#237;&#152;&#149; 2029" d="M30 2H2V30H30V2Z" fill="white"/>
<g id="&#234;&#183;&#184;&#235;&#163;&#185; 3785">
<path id="&#237;&#140;&#168;&#236;&#138;&#164; 1868" d="M22.2345 5.16827H13.2568C13.0331 5.16849 12.8134 5.22745 12.6197 5.33926C12.426 5.45107 12.265 5.61181 12.1529 5.80538L7.66401 13.5798C7.55178 13.7733 7.49268 13.9931 7.49268 14.2169C7.49268 14.4406 7.55178 14.6604 7.66401 14.854L12.1529 22.6284L14.3604 21.3542L10.2415 14.2169L13.9935 7.71671H21.5009L25.623 14.8539L27.8305 13.5797L23.3382 5.80538C23.2264 5.61158 23.0656 5.45064 22.8718 5.33879C22.6781 5.22695 22.4582 5.16813 22.2345 5.16827Z" fill="#9C6CFF"/>
<path id="&#237;&#140;&#168;&#236;&#138;&#164; 1869" d="M19.8207 9.39331L17.6132 10.6675L21.7353 17.8048L17.9833 24.3049H10.476L6.35395 17.1677L4.14648 18.4419L8.6354 26.2163C8.74725 26.41 8.90814 26.5709 9.10189 26.6828C9.29564 26.7946 9.51542 26.8535 9.73913 26.8534H18.717C18.9406 26.8532 19.1603 26.7942 19.354 26.6824C19.5477 26.5706 19.7086 26.4099 19.8207 26.2163L24.3096 18.4419C24.4219 18.2484 24.481 18.0286 24.481 17.8048C24.481 17.5811 24.4219 17.3613 24.3096 17.1677L19.8207 9.39331Z" fill="#05D2DD"/>
</g>
</g>
</g>
</svg>
