<svg width="32" height="32" viewBox="0 0 32 32" fill="none" xmlns="http://www.w3.org/2000/svg">
<g id="Keplr_icon_ver.1.3_2 1" clip-path="url(#clip0_186_24972)">
<g id="Clip path group">
<mask id="mask0_186_24972" style="mask-type:luminance" maskUnits="userSpaceOnUse" x="0" y="0" width="32" height="32">
<g id="clip0_425_5107">
<path id="Vector" d="M32 0H0V32H32V0Z" fill="white"/>
</g>
</mask>
<g mask="url(#mask0_186_24972)">
<g id="Group">
<path id="Vector_2" d="M24.7272 0H7.27272C3.25611 0 0 3.25611 0 7.27272V24.7272C0 28.7439 3.25611 32 7.27272 32H24.7272C28.7439 32 32 28.7439 32 24.7272V7.27272C32 3.25611 28.7439 0 24.7272 0Z" fill="url(#paint0_linear_186_24972)"/>
<path id="Vector_3" d="M24.7272 0H7.27272C3.25611 0 0 3.25611 0 7.27272V24.7272C0 28.7439 3.25611 32 7.27272 32H24.7272C28.7439 32 32 28.7439 32 24.7272V7.27272C32 3.25611 28.7439 0 24.7272 0Z" fill="url(#paint1_radial_186_24972)"/>
<path id="Vector_4" d="M24.7272 0H7.27272C3.25611 0 0 3.25611 0 7.27272V24.7272C0 28.7439 3.25611 32 7.27272 32H24.7272C28.7439 32 32 28.7439 32 24.7272V7.27272C32 3.25611 28.7439 0 24.7272 0Z" fill="url(#paint2_radial_186_24972)"/>
<path id="Vector_5" d="M24.7272 0H7.27272C3.25611 0 0 3.25611 0 7.27272V24.7272C0 28.7439 3.25611 32 7.27272 32H24.7272C28.7439 32 32 28.7439 32 24.7272V7.27272C32 3.25611 28.7439 0 24.7272 0Z" fill="url(#paint3_radial_186_24972)"/>
<path id="Vector_6" d="M13.1448 24.5801V17.1575L20.357 24.5801H24.3694V24.387L16.0734 15.9331L23.731 7.91291V7.81821H19.6925L13.1448 14.9055V7.81821H9.89326V24.5801H13.1448Z" fill="#EEEEEE"/>
</g>
</g>
</g>
</g>
<defs>
<linearGradient id="paint0_linear_186_24972" x1="16" y1="0" x2="16" y2="32" gradientUnits="userSpaceOnUse">
<stop stop-color="#1FD1FF"/>
<stop offset="1" stop-color="#1BB8FF"/>
</linearGradient>
<radialGradient id="paint1_radial_186_24972" cx="0" cy="0" r="1" gradientUnits="userSpaceOnUse" gradientTransform="translate(1.52855 30.7875) rotate(-45.1556) scale(51.3179 52.0856)">
<stop stop-color="#232DE3"/>
<stop offset="1" stop-color="#232DE3" stop-opacity="0"/>
</radialGradient>
<radialGradient id="paint2_radial_186_24972" cx="0" cy="0" r="1" gradientUnits="userSpaceOnUse" gradientTransform="translate(30.2765 31.8173) rotate(-138.45) scale(32.0866 48.9231)">
<stop stop-color="#8B4DFF"/>
<stop offset="1" stop-color="#8B4DFF" stop-opacity="0"/>
</radialGradient>
<radialGradient id="paint3_radial_186_24972" cx="0" cy="0" r="1" gradientUnits="userSpaceOnUse" gradientTransform="translate(15.7334 0.237332) rotate(90) scale(25.2293 61.2132)">
<stop stop-color="#24D5FF"/>
<stop offset="1" stop-color="#1BB8FF" stop-opacity="0"/>
</radialGradient>
<clipPath id="clip0_186_24972">
<rect width="32" height="32" fill="white"/>
</clipPath>
</defs>
</svg>
