<svg width="20" height="20" viewBox="0 0 20 20" fill="none" xmlns="http://www.w3.org/2000/svg">
<g id="leap-cosmos-logo 1" clip-path="url(#clip0_186_25000)">
<g id="Clip path group">
<mask id="mask0_186_25000" style="mask-type:luminance" maskUnits="userSpaceOnUse" x="0" y="0" width="20" height="20">
<g id="clip0_2364_33755">
<path id="Vector" d="M16.144 0.399994H3.856C1.94731 0.399994 0.400002 1.9473 0.400002 3.85599V16.144C0.400002 18.0527 1.94731 19.6 3.856 19.6H16.144C18.0527 19.6 19.6 18.0527 19.6 16.144V3.85599C19.6 1.9473 18.0527 0.399994 16.144 0.399994Z" fill="white"/>
</g>
</mask>
<g mask="url(#mask0_186_25000)">
<g id="Group">
<g id="Clip path group_2">
<mask id="mask1_186_25000" style="mask-type:luminance" maskUnits="userSpaceOnUse" x="0" y="0" width="20" height="14">
<g id="clip1_2364_33755">
<path id="Vector_2" d="M19.2136 0.829315H0.781616V13.1173H19.2136V0.829315Z" fill="white"/>
</g>
</mask>
<g mask="url(#mask1_186_25000)">
<g id="Group_2">
<path id="Vector_3" d="M17.3893 9.3101C17.3893 12.0163 14.1705 13.116 10.1739 13.116C6.17731 13.116 2.91167 12.0163 2.91167 9.3101C2.91167 6.60388 6.15389 4.41403 10.1504 4.41403C14.147 4.41403 17.3893 6.60865 17.3893 9.3101Z" fill="#4BAF74"/>
<path id="Vector_4" d="M16.6547 3.41819C16.6547 1.99335 15.5209 0.836273 14.1247 0.836273C13.3375 0.836273 12.6347 1.20444 12.1709 1.77819C11.5384 1.63475 10.8637 1.55347 10.1656 1.55347C9.46748 1.55347 8.79279 1.62997 8.16026 1.77819C7.69173 1.20444 6.98894 0.836273 6.20649 0.836273C4.81028 0.836273 3.67643 1.99335 3.67643 3.41819C3.67643 3.88676 3.79826 4.32185 4.00908 4.69958C3.80761 5.13946 3.69985 5.60804 3.69985 6.09572C3.69985 8.60593 6.59538 10.638 10.1656 10.638C13.7358 10.638 16.6313 8.60593 16.6313 6.09572C16.6313 5.60804 16.5235 5.13946 16.3221 4.69958C16.5329 4.32185 16.6547 3.88676 16.6547 3.41819Z" fill="#32DA6D"/>
<path id="Vector_5" d="M6.00258 4.85455C6.85649 4.85455 7.54872 4.14813 7.54872 3.27672C7.54872 2.4053 6.85649 1.69888 6.00258 1.69888C5.14867 1.69888 4.45642 2.4053 4.45642 3.27672C4.45642 4.14813 5.14867 4.85455 6.00258 4.85455Z" fill="#EEEEEE"/>
<path id="Vector_6" d="M14.2526 4.85455C15.1065 4.85455 15.7987 4.14813 15.7987 3.27672C15.7987 2.4053 15.1065 1.69888 14.2526 1.69888C13.3987 1.69888 12.7064 2.4053 12.7064 3.27672C12.7064 4.14813 13.3987 4.85455 14.2526 4.85455Z" fill="#EEEEEE"/>
<path id="Vector_7" d="M5.17706 12.9301C5.5097 12.9301 5.77209 12.6337 5.7346 12.299C5.59872 11.1132 5.02243 8.54563 2.48768 7.00126C-0.885742 4.94529 1.78488 12.0216 1.78488 12.0216L1.08677 12.4329C0.852507 12.5715 0.950897 12.9301 1.21796 12.9301H5.17706Z" fill="#32DA6D"/>
<path id="Vector_8" d="M15.2435 12.9301C14.9436 12.9301 14.7093 12.6337 14.7421 12.299C14.8593 11.118 15.384 8.54563 17.6705 7.00126C20.7206 4.94529 18.3077 12.0216 18.3077 12.0216L18.9402 12.4329C19.151 12.5715 19.062 12.9301 18.823 12.9301H15.2435Z" fill="#32DA6D"/>
<path id="Vector_9" d="M6.00537 3.55517C6.16062 3.55517 6.28648 3.42674 6.28648 3.26829C6.28648 3.10985 6.16062 2.98141 6.00537 2.98141C5.8501 2.98141 5.72424 3.10985 5.72424 3.26829C5.72424 3.42674 5.8501 3.55517 6.00537 3.55517Z" fill="#0D0D0D"/>
<path id="Vector_10" d="M14.2476 3.55517C14.4029 3.55517 14.5287 3.42674 14.5287 3.26829C14.5287 3.10985 14.4029 2.98141 14.2476 2.98141C14.0923 2.98141 13.9665 3.10985 13.9665 3.26829C13.9665 3.42674 14.0923 3.55517 14.2476 3.55517Z" fill="#0D0D0D"/>
</g>
</g>
</g>
<path id="Vector_11" d="M19.6 14.3766H0.400002V21.7704H19.6V14.3766Z" fill="#AC4BFF"/>
</g>
</g>
</g>
</g>
<defs>
<clipPath id="clip0_186_25000">
<rect width="19.2" height="19.2" fill="white" transform="translate(0.400002 0.399994)"/>
</clipPath>
</defs>
</svg>
