<svg width="120" height="122" viewBox="0 0 120 122" fill="none" xmlns="http://www.w3.org/2000/svg">
<circle cx="58.845" cy="59.5955" r="51.8274" fill="url(#paint0_radial_199_25111)"/>
<path d="M55.7765 86.7079C69.9378 89.5617 83.7115 80.2956 86.5408 66.0115C89.3701 51.7273 80.1836 37.8343 66.0223 34.9804C51.8609 32.1266 38.0873 41.3927 35.258 55.6768C32.4287 69.961 41.6151 83.8541 55.7765 86.7079Z" fill="url(#paint1_linear_199_25111)"/>
<path d="M53.6788 86.2853C67.8402 89.1391 81.6138 79.873 84.4431 65.5889C87.2724 51.3047 78.086 37.4116 63.9246 34.5578C49.7633 31.704 35.9896 40.9701 33.1603 55.2542C30.331 69.5384 39.5175 83.4314 53.6788 86.2853Z" fill="url(#paint2_linear_199_25111)"/>
<path d="M48.3804 79.9731C59.0856 85.7786 72.4297 81.7314 78.1854 70.9334C83.941 60.1354 79.9286 46.6755 69.2233 40.87C58.5181 35.0645 45.174 39.1117 39.4184 49.9097C33.6627 60.7077 37.6752 74.1676 48.3804 79.9731Z" fill="url(#paint3_linear_199_25111)"/>
<g filter="url(#filter0_b_199_25111)">
<path d="M83.3649 48.3416C83.6254 48.809 83.8911 49.2765 84.1272 49.7648C96.3002 50.2671 104.443 52.1753 104.689 55.095C104.921 57.891 97.8508 60.9787 86.7813 63.4518C79.4207 65.0954 70.2951 66.4681 60.363 67.3012C50.4309 68.1343 41.2063 68.2997 33.6755 67.9045C22.35 67.3099 14.8644 65.4427 14.6317 62.6466C14.3878 59.7252 22.1103 56.4869 34.0393 53.9633C34.1913 53.4497 34.3493 52.9404 34.5299 52.4382C13.7548 56.3363 -0.458391 62.3707 0.0113023 67.9637C0.488809 73.689 16.2014 77.3112 38.125 77.5497C45.2442 77.6272 53.0224 77.3495 61.147 76.6688C69.2715 75.988 76.9785 74.9669 83.9874 73.709C105.568 69.824 120.466 63.6346 119.989 57.9084C119.52 52.3093 104.502 48.7254 83.3649 48.3416Z" fill="white" fill-opacity="0.07"/>
</g>
<g opacity="0.5">
<path opacity="0.75" d="M4.9043 35.475C3.52975 35.8239 2.77769 36.6628 2.48314 38.1185C2.13362 36.6773 1.43849 35.7782 -0.000858078 35.5041C1.3462 35.0991 2.20823 34.3267 2.46154 32.8045C2.79143 34.2831 3.53957 35.1386 4.9043 35.475ZM2.47725 34.4284C2.1827 34.7669 1.82729 35.176 1.57202 35.4688C1.84889 35.774 2.21608 36.1748 2.56953 36.5631C2.84444 36.2558 3.20969 35.8467 3.48656 35.5394C3.1174 35.1324 2.76787 34.7482 2.47725 34.4284Z" fill="url(#paint4_linear_199_25111)"/>
<path d="M85.0215 87.1757C84.3349 87.3371 83.9576 87.7243 83.8117 88.3963C83.6367 87.7319 83.2905 87.3162 82.5689 87.189C83.2419 87.003 83.6736 86.6461 83.8001 85.9437C83.9654 86.6271 84.3388 87.02 85.0215 87.1757ZM83.8078 86.6935C83.66 86.8492 83.483 87.039 83.3547 87.1738C83.4928 87.3143 83.6775 87.5003 83.8545 87.6788C83.9926 87.5364 84.1754 87.3484 84.3135 87.2061C84.1268 87.0181 83.9518 86.8416 83.8078 86.6935Z" fill="url(#paint5_linear_199_25111)"/>
<path opacity="0.25" d="M57.2252 20.1329C55.8706 20.1329 54.7726 21.2309 54.7726 22.5854C54.7726 23.94 55.8706 25.038 57.2252 25.038C58.5797 25.038 59.6777 23.94 59.6777 22.5854C59.6777 21.2309 58.5797 20.1329 57.2252 20.1329Z" stroke="url(#paint6_linear_199_25111)" stroke-width="0.375" stroke-miterlimit="10"/>
<path opacity="0.5" d="M13.8357 82.4892L16.6406 83.4393L17.5907 80.6343L14.7858 79.6842L13.8357 82.4892Z" stroke="url(#paint7_linear_199_25111)" stroke-width="0.375" stroke-miterlimit="10"/>
<path d="M78.4645 36.061C78.4645 36.061 85.8895 36.6893 84.421 29.3944C84.0358 25.4297 76.0979 27.0106 77.3996 30.7618C78.2914 33.2543 80.3284 33.088 81.3768 32.4207C82.4252 31.7535 82.2934 29.998 81.4736 29.4991C80.6559 29.0002 79.1689 29.6428 79.1792 30.3491C79.1895 31.0554 79.727 31.776 80.2955 31.5933" stroke="#7C7C7C" stroke-width="0.75" stroke-miterlimit="10"/>
<path opacity="0.75" d="M71.943 101.257C71.943 101.257 71.7294 109.857 80.0926 107.657C84.6659 106.936 82.2797 97.8996 78.0173 99.6598C75.1875 100.86 75.5233 103.197 76.3692 104.36C77.215 105.523 79.2426 105.246 79.765 104.269C80.2874 103.292 79.4374 101.622 78.6185 101.684C77.8017 101.746 77.0015 102.414 77.2523 103.056" stroke="#7C7C7C" stroke-width="0.75" stroke-miterlimit="10"/>
<path d="M30.248 98.9497C30.248 98.9497 29.3283 103.996 24.7848 101.692C22.2418 100.712 24.7114 95.7272 26.9485 97.2766C28.431 98.3246 27.9538 99.647 27.3278 100.223C26.6997 100.798 25.5679 100.39 25.3864 99.7543C25.2049 99.1189 25.8962 98.2483 26.3591 98.3845C26.822 98.5206 27.2013 99.0075 26.9791 99.352" stroke="#7C7C7C" stroke-width="0.75" stroke-miterlimit="10"/>
<path opacity="0.5" d="M28.9575 36.0746C28.9575 36.0746 20.4171 34.5798 24.3192 27.197C25.9773 23.065 34.4113 27.0762 31.7897 30.7112C30.017 33.1187 27.7792 32.3446 26.8052 31.3269C25.8313 30.3073 26.5237 28.4661 27.5978 28.1711C28.6718 27.8761 30.1442 28.9986 29.9148 29.751C29.6854 30.5033 28.8595 31.1191 28.2777 30.7567" stroke="#7C7C7C" stroke-width="0.75" stroke-miterlimit="10"/>
<path opacity="0.25" d="M103.015 81.7441C103.015 81.7441 102.607 76.3881 108.208 77.5156C111.256 77.8314 109.959 83.5355 107.083 82.5619C105.173 81.8959 105.321 80.4284 105.845 79.6795C106.369 78.9305 107.719 79.0418 108.096 79.637C108.471 80.2321 107.96 81.2968 107.419 81.2826C106.876 81.2685 106.326 80.8737 106.473 80.4669" stroke="#7C7C7C" stroke-width="0.75" stroke-miterlimit="10"/>
</g>
<defs>
<filter id="filter0_b_199_25111" x="-1.5" y="46.8416" width="123" height="32.2208" filterUnits="userSpaceOnUse" color-interpolation-filters="sRGB">
<feFlood flood-opacity="0" result="BackgroundImageFix"/>
<feGaussianBlur in="BackgroundImageFix" stdDeviation="0.75"/>
<feComposite in2="SourceAlpha" operator="in" result="effect1_backgroundBlur_199_25111"/>
<feBlend mode="normal" in="SourceGraphic" in2="effect1_backgroundBlur_199_25111" result="shape"/>
</filter>
<radialGradient id="paint0_radial_199_25111" cx="0" cy="0" r="1" gradientUnits="userSpaceOnUse" gradientTransform="translate(58.845 59.5955) rotate(90) scale(51.8274)">
<stop stop-color="#999999" stop-opacity="0.15"/>
<stop offset="0.848111" stop-color="#1B1D23" stop-opacity="0"/>
</radialGradient>
<linearGradient id="paint1_linear_199_25111" x1="39.2534" y1="39.5848" x2="116.505" y2="139.229" gradientUnits="userSpaceOnUse">
<stop stop-color="#596681"/>
<stop offset="0.495086" stop-color="#1F262E"/>
</linearGradient>
<linearGradient id="paint2_linear_199_25111" x1="37.1558" y1="39.1622" x2="114.407" y2="138.806" gradientUnits="userSpaceOnUse">
<stop stop-color="#2E333E"/>
<stop offset="0.519038" stop-color="#1F262E"/>
</linearGradient>
<linearGradient id="paint3_linear_199_25111" x1="46.553" y1="37.9452" x2="84.2185" y2="137.396" gradientUnits="userSpaceOnUse">
<stop stop-color="#596681"/>
<stop offset="0.495086" stop-color="#1F262E"/>
</linearGradient>
<linearGradient id="paint4_linear_199_25111" x1="4.90457" y1="35.4612" x2="0.000948375" y2="35.4612" gradientUnits="userSpaceOnUse">
<stop stop-color="#F2F2F2"/>
<stop offset="0.8992" stop-color="#DBDBDB"/>
</linearGradient>
<linearGradient id="paint5_linear_199_25111" x1="85.0212" y1="87.1702" x2="82.5686" y2="87.1702" gradientUnits="userSpaceOnUse">
<stop stop-color="#F2F2F2"/>
<stop offset="0.8992" stop-color="#DBDBDB"/>
</linearGradient>
<linearGradient id="paint6_linear_199_25111" x1="59.8798" y1="22.5864" x2="54.5692" y2="22.5864" gradientUnits="userSpaceOnUse">
<stop stop-color="#F2F2F2"/>
<stop offset="0.8992" stop-color="#DBDBDB"/>
</linearGradient>
<linearGradient id="paint7_linear_199_25111" x1="17.7362" y1="82.2485" x2="13.6892" y2="80.8777" gradientUnits="userSpaceOnUse">
<stop stop-color="#F2F2F2"/>
<stop offset="0.8992" stop-color="#DBDBDB"/>
</linearGradient>
</defs>
</svg>
