<svg width="16" height="17" viewBox="0 0 16 17" fill="none" xmlns="http://www.w3.org/2000/svg">
<path fill-rule="evenodd" clip-rule="evenodd" d="M11.0948 10.2885C11.076 10.2062 11.1044 10.1202 11.1686 10.0654L14.396 7.30743C14.5493 7.17639 14.4684 6.92538 14.2673 6.90863L10.043 6.55661C9.95905 6.54961 9.88584 6.49665 9.85292 6.41905L8.2086 2.54313C8.13035 2.35867 7.86891 2.35867 7.79065 2.54313L6.14631 6.41905C6.11339 6.49665 6.04018 6.54961 5.95618 6.55661L1.73191 6.90863C1.5309 6.92538 1.44994 7.17639 1.60328 7.30743L4.83063 10.0654C4.89484 10.1202 4.92327 10.2062 4.90446 10.2885L3.96618 14.3935C3.92131 14.5898 4.13524 14.743 4.30663 14.6373L7.81429 12.4742C7.88633 12.4298 7.9771 12.4291 8.04977 12.4725L11.6979 14.6496C11.8694 14.752 12.08 14.5988 12.0355 14.4041L11.0948 10.2885ZM10.7954 13.0536L8.51509 11.6928C8.15171 11.4759 7.69787 11.4792 7.33768 11.7013L5.21356 13.0112L5.78965 10.4908C5.88373 10.0792 5.74154 9.64937 5.42053 9.37505L3.43452 7.67791L6.03159 7.46149C6.45158 7.42649 6.81761 7.16166 6.98221 6.77368L7.99962 4.37551L9.01702 6.77367C9.18162 7.16166 9.54764 7.42649 9.96764 7.46149L12.5647 7.67791L10.5787 9.37505C10.2577 9.64937 10.1155 10.0792 10.2096 10.4908L10.7954 13.0536Z" fill="#454545"/>
</svg>
