<svg width="24" height="24" viewBox="0 0 24 24" fill="none" xmlns="http://www.w3.org/2000/svg">
<g id="Icon/Trade">
<path id="Union" fill-rule="evenodd" clip-rule="evenodd" d="M4.29989 15.552C4.32678 15.6862 4.39319 15.8098 4.49111 15.9071L8.11273 19.5037C8.17692 19.5691 8.25361 19.6215 8.33847 19.6577C8.42425 19.6943 8.5166 19.7136 8.61011 19.7144C8.70361 19.7152 8.79629 19.6975 8.88272 19.6624C8.96913 19.6273 9.04749 19.5755 9.11328 19.5102C9.17905 19.4449 9.23095 19.3674 9.26605 19.2822C9.30114 19.197 9.31877 19.1059 9.31797 19.014C9.31717 18.9221 9.29796 18.8313 9.26138 18.7467C9.22513 18.6629 9.17252 18.5869 9.10645 18.5231L9.10288 18.5196L6.67801 16.1114L19.013 16.1114C19.1998 16.1114 19.3786 16.0377 19.51 15.9072C19.6413 15.7767 19.7147 15.6004 19.7147 15.417C19.7147 15.2335 19.6413 15.0572 19.51 14.9267C19.3786 14.7963 19.1998 14.7225 19.013 14.7225L4.98784 14.7225C4.84857 14.7226 4.71264 14.7637 4.59724 14.8403C4.48186 14.9169 4.39231 15.0255 4.33953 15.1521C4.28676 15.2787 4.273 15.4178 4.29989 15.552ZM14.8939 5.46221L17.3228 7.87443H4.98787C4.801 7.87443 4.62226 7.94816 4.49083 8.07866C4.35949 8.20908 4.28613 8.38546 4.28613 8.56887C4.28613 8.75228 4.35949 8.92866 4.49083 9.05908C4.62223 9.18955 4.80094 9.26328 4.98778 9.26331L19.013 9.26322C19.1522 9.26315 19.2881 9.2221 19.4035 9.1455C19.5189 9.06893 19.6085 8.96037 19.6613 8.83381C19.7141 8.70727 19.7279 8.56817 19.701 8.43398C19.6742 8.29993 19.6078 8.17617 19.51 8.07886L15.891 4.48496L15.889 4.48305C15.757 4.35565 15.5792 4.28454 15.3941 4.28586C15.209 4.28718 15.0323 4.3608 14.9021 4.49007C14.772 4.61926 14.6988 4.79361 14.6974 4.97529C14.6961 5.15612 14.7669 5.33143 14.8939 5.46221Z" fill="#5E6773"/>
</g>
</svg>
