<svg width="17" height="18" viewBox="0 0 17 18" fill="none" xmlns="http://www.w3.org/2000/svg">
<g id="Icon/Wallet" clip-path="url(#clip0_202_302)">
<g id="Union">
<mask id="path-1-outside-1_202_302" maskUnits="userSpaceOnUse" x="-0.190491" y="1.52381" width="17" height="15" fill="black">
<rect fill="white" x="-0.190491" y="1.52381" width="17" height="15"/>
<path fill-rule="evenodd" clip-rule="evenodd" d="M0.809509 6.16667C0.809509 4.15477 2.44047 2.52381 4.45237 2.52381L8.09522 2.52381C9.60404 2.52381 10.8718 3.55577 11.2313 4.95238H12.9524C14.7407 4.95238 16.1905 6.40213 16.1905 8.19048V12.2381C16.1905 14.0264 14.7407 15.4762 12.9524 15.4762L4.0476 15.4762C2.25925 15.4762 0.809509 14.0264 0.809509 12.2381L0.809509 8.59524L0.809509 8.19048L0.809509 6.16667ZM8.09522 3.33334C9.15264 3.33334 10.0522 4.00913 10.3856 4.95238L4.0476 4.95238C3.08185 4.95238 2.21484 5.37517 1.62157 6.04575C1.68491 4.53703 2.92807 3.33334 4.45237 3.33334L8.09522 3.33334ZM1.61903 8.59524L1.61903 8.19048C1.61903 6.84922 2.70634 5.76191 4.0476 5.76191L12.9524 5.76191C14.2936 5.76191 15.3809 6.84922 15.3809 8.19048V12.2381C15.3809 13.5794 14.2936 14.6667 12.9524 14.6667L4.0476 14.6667C2.70634 14.6667 1.61903 13.5794 1.61903 12.2381L1.61903 8.59524ZM11.3333 7.78572C11.1098 7.78572 10.9286 7.96693 10.9286 8.19048C10.9286 8.41402 11.1098 8.59524 11.3333 8.59524H12.9524C13.1759 8.59524 13.3571 8.41402 13.3571 8.19048C13.3571 7.96693 13.1759 7.78572 12.9524 7.78572H11.3333Z"/>
</mask>
<path fill-rule="evenodd" clip-rule="evenodd" d="M0.809509 6.16667C0.809509 4.15477 2.44047 2.52381 4.45237 2.52381L8.09522 2.52381C9.60404 2.52381 10.8718 3.55577 11.2313 4.95238H12.9524C14.7407 4.95238 16.1905 6.40213 16.1905 8.19048V12.2381C16.1905 14.0264 14.7407 15.4762 12.9524 15.4762L4.0476 15.4762C2.25925 15.4762 0.809509 14.0264 0.809509 12.2381L0.809509 8.59524L0.809509 8.19048L0.809509 6.16667ZM8.09522 3.33334C9.15264 3.33334 10.0522 4.00913 10.3856 4.95238L4.0476 4.95238C3.08185 4.95238 2.21484 5.37517 1.62157 6.04575C1.68491 4.53703 2.92807 3.33334 4.45237 3.33334L8.09522 3.33334ZM1.61903 8.59524L1.61903 8.19048C1.61903 6.84922 2.70634 5.76191 4.0476 5.76191L12.9524 5.76191C14.2936 5.76191 15.3809 6.84922 15.3809 8.19048V12.2381C15.3809 13.5794 14.2936 14.6667 12.9524 14.6667L4.0476 14.6667C2.70634 14.6667 1.61903 13.5794 1.61903 12.2381L1.61903 8.59524ZM11.3333 7.78572C11.1098 7.78572 10.9286 7.96693 10.9286 8.19048C10.9286 8.41402 11.1098 8.59524 11.3333 8.59524H12.9524C13.1759 8.59524 13.3571 8.41402 13.3571 8.19048C13.3571 7.96693 13.1759 7.78572 12.9524 7.78572H11.3333Z" fill="#21262E"/>
<path d="M11.2313 4.95238L11.0376 5.00223L11.0763 5.15238H11.2313V4.95238ZM10.3856 4.95238V5.15238H10.6684L10.5742 4.88573L10.3856 4.95238ZM1.62157 6.04575L1.42174 6.03736L1.39811 6.60016L1.77136 6.17828L1.62157 6.04575ZM1.61903 8.19048H1.41903H1.61903ZM1.61903 8.59524H1.81903H1.61903ZM1.61903 12.2381H1.41903H1.61903ZM4.45237 2.32381C2.33001 2.32381 0.609509 4.04432 0.609509 6.16667H1.00951C1.00951 4.26523 2.55093 2.72381 4.45237 2.72381V2.32381ZM8.09522 2.32381L4.45237 2.32381V2.72381L8.09522 2.72381V2.32381ZM11.425 4.90253C11.0433 3.4197 9.69751 2.32381 8.09522 2.32381V2.72381C9.51058 2.72381 10.7003 3.69184 11.0376 5.00223L11.425 4.90253ZM12.9524 4.75238H11.2313V5.15238H12.9524V4.75238ZM16.3905 8.19048C16.3905 6.29167 14.8512 4.75238 12.9524 4.75238V5.15238C14.6303 5.15238 15.9905 6.51258 15.9905 8.19048H16.3905ZM16.3905 12.2381V8.19048H15.9905V12.2381H16.3905ZM12.9524 15.6762C14.8512 15.6762 16.3905 14.1369 16.3905 12.2381H15.9905C15.9905 13.916 14.6303 15.2762 12.9524 15.2762V15.6762ZM4.0476 15.6762L12.9524 15.6762V15.2762L4.0476 15.2762V15.6762ZM0.609509 12.2381C0.609509 14.1369 2.1488 15.6762 4.0476 15.6762V15.2762C2.36971 15.2762 1.00951 13.916 1.00951 12.2381H0.609509ZM0.609509 8.59524L0.609509 12.2381H1.00951L1.00951 8.59524H0.609509ZM0.609509 8.19048L0.609509 8.59524H1.00951V8.19048H0.609509ZM0.609509 6.16667L0.609509 8.19048H1.00951L1.00951 6.16667H0.609509ZM10.5742 4.88573C10.2134 3.86507 9.24003 3.13334 8.09522 3.13334V3.53334C9.06524 3.53334 9.891 4.15319 10.197 5.01903L10.5742 4.88573ZM4.0476 5.15238L10.3856 5.15238V4.75238L4.0476 4.75238V5.15238ZM1.77136 6.17828C2.32828 5.54878 3.14152 5.15238 4.0476 5.15238V4.75238C3.02217 4.75238 2.1014 5.20156 1.47177 5.91323L1.77136 6.17828ZM4.45237 3.13334C2.82042 3.13334 1.48956 4.422 1.42174 6.03736L1.82139 6.05414C1.88026 4.65207 3.03572 3.53334 4.45237 3.53334V3.13334ZM8.09522 3.13334L4.45237 3.13334V3.53334H8.09522V3.13334ZM1.41903 8.19048L1.41903 8.59524H1.81903V8.19048H1.41903ZM4.0476 5.56191C2.59588 5.56191 1.41903 6.73876 1.41903 8.19048H1.81903C1.81903 6.95967 2.8168 5.96191 4.0476 5.96191V5.56191ZM12.9524 5.56191L4.0476 5.56191V5.96191L12.9524 5.96191V5.56191ZM15.5809 8.19048C15.5809 6.73876 14.4041 5.56191 12.9524 5.56191V5.96191C14.1832 5.96191 15.1809 6.95967 15.1809 8.19048H15.5809ZM15.5809 12.2381V8.19048H15.1809V12.2381H15.5809ZM12.9524 14.8667C14.4041 14.8667 15.5809 13.6898 15.5809 12.2381H15.1809C15.1809 13.4689 14.1832 14.4667 12.9524 14.4667V14.8667ZM4.0476 14.8667L12.9524 14.8667V14.4667L4.0476 14.4667V14.8667ZM1.41903 12.2381C1.41903 13.6898 2.59588 14.8667 4.0476 14.8667V14.4667C2.8168 14.4667 1.81903 13.4689 1.81903 12.2381H1.41903ZM1.41903 8.59524L1.41903 12.2381H1.81903L1.81903 8.59524H1.41903ZM11.1286 8.19048C11.1286 8.07739 11.2202 7.98572 11.3333 7.98572V7.58572C10.9993 7.58572 10.7286 7.85648 10.7286 8.19048H11.1286ZM11.3333 8.39524C11.2202 8.39524 11.1286 8.30356 11.1286 8.19048H10.7286C10.7286 8.52448 10.9993 8.79524 11.3333 8.79524V8.39524ZM12.9524 8.39524H11.3333V8.79524H12.9524V8.39524ZM13.1571 8.19048C13.1571 8.30356 13.0655 8.39524 12.9524 8.39524V8.79524C13.2864 8.79524 13.5571 8.52448 13.5571 8.19048H13.1571ZM12.9524 7.98572C13.0655 7.98572 13.1571 8.07739 13.1571 8.19048H13.5571C13.5571 7.85648 13.2864 7.58572 12.9524 7.58572V7.98572ZM11.3333 7.98572H12.9524V7.58572H11.3333V7.98572Z" fill="#21262E" mask="url(#path-1-outside-1_202_302)"/>
</g>
</g>
<defs>
<clipPath id="clip0_202_302">
<rect width="17" height="17" fill="white" transform="translate(0 0.5)"/>
</clipPath>
</defs>
</svg>
